<svg width="136pt" height="47pt" viewBox="0 0 138 49" xmlns="http://www.w3.org/2000/svg"><g id="fontsvg1689138415870" stroke-linecap="round" fill-rule="evenodd" fill="#fbf6f6"><path d="M 44.36 15.492 L 44.92 15.092 Q 46.04 14.532 47.56 15.132 Q 49.04 15.772 49.12 17.092 Q 49.08 17.132 49.08 17.252 L 49.2 17.292 L 48.92 17.532 Q 48.65 18.034 48.51 18.219 A 1.145 1.145 0 0 1 48.5 18.232 A 1.349 1.349 0 0 1 48.411 18.334 Q 48.257 18.495 47.95 18.748 A 12.407 12.407 0 0 1 47.92 18.772 A 17.025 17.025 0 0 0 46.373 20.743 Q 44.238 23.858 41.68 29.612 A 444.625 444.625 0 0 1 40.865 31.417 Q 40.451 32.328 40.08 33.132 Q 41.16 33.812 41.72 34.892 Q 42.166 35.753 41.901 36.741 A 3.615 3.615 0 0 1 41.72 37.252 Q 38.4 39.892 38 42.212 A 15.814 15.814 0 0 1 37.894 42.88 Q 37.777 43.519 37.633 43.931 A 2.745 2.745 0 0 1 37.5 44.252 Q 37.219 44.815 36.639 45.342 A 5.552 5.552 0 0 1 36.56 45.412 A 3.275 3.275 0 0 1 35.535 45.934 Q 34.124 46.35 32.434 45.302 A 8.89 8.89 0 0 1 31.48 44.612 A 3.957 3.957 0 0 1 30.736 43.606 Q 29.948 42.051 30.943 40.027 A 8.236 8.236 0 0 1 31.28 39.412 Q 31.76 38.572 32.2 37.652 Q 32.69 36.611 33.626 34.796 A 243.785 243.785 0 0 1 34.24 33.612 A 8.13 8.13 0 0 1 32.905 34.243 Q 30.232 35.202 27.92 33.532 Q 25.945 32.022 26.444 26.801 A 27.059 27.059 0 0 1 26.48 26.452 A 139.974 139.974 0 0 0 26.656 24.74 Q 26.861 22.613 26.894 21.405 A 17.497 17.497 0 0 0 26.9 21.132 Q 26.915 19.921 26.766 19.037 A 6.238 6.238 0 0 0 26.64 18.452 Q 26.423 17.648 26.554 17.047 A 1.835 1.835 0 0 1 26.66 16.712 Q 26.96 16.012 27.62 15.732 Q 28.28 15.452 29.18 15.552 A 5.153 5.153 0 0 1 30.681 15.962 A 5.993 5.993 0 0 1 30.96 16.092 A 7.057 7.057 0 0 1 32.446 16.984 A 5.15 5.15 0 0 1 33.92 18.812 A 2.994 2.994 0 0 1 33.986 19.282 Q 34.029 19.932 33.836 20.765 A 8.223 8.223 0 0 1 33.78 20.992 A 51.407 51.407 0 0 1 33.214 22.987 A 57.512 57.512 0 0 1 33 23.672 Q 32.56 25.052 32.16 26.352 Q 31.76 27.652 31.84 28.532 Q 32.88 27.892 33.66 26.612 A 24.919 24.919 0 0 0 34.933 24.234 A 27.613 27.613 0 0 0 35.1 23.872 Q 35.76 22.412 36.34 20.972 A 21.174 21.174 0 0 1 36.734 20.053 Q 36.92 19.648 37.101 19.308 A 8.81 8.81 0 0 1 37.46 18.692 Q 37.873 18.049 38.158 17.605 A 437.817 437.817 0 0 0 38.32 17.352 Q 38.64 16.852 38.96 16.452 Q 39.48 15.772 40.32 15.132 A 0.3 0.3 0 0 1 40.422 15.08 Q 40.7 14.991 41.46 15.129 A 10.558 10.558 0 0 1 41.78 15.192 Q 43 15.452 43.58 15.552 A 3.109 3.109 0 0 0 43.733 15.575 Q 44.068 15.616 44.25 15.551 A 0.374 0.374 0 0 0 44.36 15.492 Z M 70.4 29.652 L 70.84 30.172 Q 71.2 31.532 70.68 32.432 Q 70.16 33.332 69.2 33.812 Q 69.2 33.973 69.369 34.511 A 16.909 16.909 0 0 0 69.46 34.792 Q 69.72 35.572 69.88 36.092 Q 70.129 36.84 70.129 37.492 A 3.128 3.128 0 0 1 70.08 38.052 A 2.242 2.242 0 0 1 69.561 38.993 Q 68.967 39.617 67.84 39.692 A 3.224 3.224 0 0 1 67.502 39.71 Q 66.911 39.71 66.32 39.492 A 2.71 2.71 0 0 1 65.566 39.076 A 2.402 2.402 0 0 1 65.12 38.612 A 0.057 0.057 0 0 1 65.106 38.631 Q 65.012 38.709 64.68 37.952 A 126.099 126.099 0 0 1 64.325 37.135 Q 64.14 36.706 63.938 36.229 A 207.113 207.113 0 0 1 63.88 36.092 L 63 34.332 A 16.368 16.368 0 0 1 61.909 34.637 Q 60.515 34.972 59.531 34.897 A 4.365 4.365 0 0 1 59.48 34.892 A 16.033 16.033 0 0 1 57.019 34.407 A 20.817 20.817 0 0 1 55 33.732 A 7.765 7.765 0 0 1 51.972 31.678 A 7.927 7.927 0 0 1 50.48 29.172 A 10.906 10.906 0 0 1 49.868 26.628 Q 49.657 24.895 49.892 22.855 A 22.949 22.949 0 0 1 50.16 21.132 A 29.682 29.682 0 0 1 51.616 13.886 A 26.417 26.417 0 0 1 52.84 10.892 A 20.584 20.584 0 0 1 54.619 7.846 Q 56.718 4.912 59.44 3.812 Q 62.932 2.049 65.408 2.049 A 6.339 6.339 0 0 1 66.16 2.092 L 66.88 1.852 A 3.213 3.213 0 0 1 68.361 0.525 A 4.228 4.228 0 0 1 68.74 0.372 A 6.788 6.788 0 0 1 70.927 0 Q 70.964 0 71.001 0 A 7.91 7.91 0 0 1 71.44 0.012 Q 72.88 0.092 74.26 0.612 A 6.959 6.959 0 0 1 75.417 1.168 A 5.149 5.149 0 0 1 76.48 2.012 A 7.663 7.663 0 0 1 78.376 5.119 Q 79.156 7.434 78.974 10.731 A 25.397 25.397 0 0 1 78.92 11.492 A 28.236 28.236 0 0 1 74.163 24.989 A 34.326 34.326 0 0 1 73.08 26.532 Q 71.84 28.212 70.4 29.652 Z M 92.84 18.132 L 93.44 17.012 L 94.64 15.092 Q 94.841 14.455 95.296 14.197 A 1.236 1.236 0 0 1 95.48 14.112 Q 96.08 13.892 96.78 13.892 Q 97.48 13.892 98.2 13.912 A 2.46 2.46 0 0 0 98.268 13.913 A 2.21 2.21 0 0 0 99.52 13.532 A 1.915 1.915 0 0 1 100.52 13.214 Q 100.703 13.207 100.899 13.228 A 2.87 2.87 0 0 1 100.94 13.232 Q 101.76 13.332 102.42 13.772 A 3.292 3.292 0 0 1 103.058 14.32 A 2.776 2.776 0 0 1 103.42 14.832 A 1.59 1.59 0 0 1 103.557 15.16 Q 103.674 15.573 103.513 15.976 A 1.486 1.486 0 0 1 103.48 16.052 Q 101.858 19.528 99.08 28.785 A 347.862 347.862 0 0 0 98.88 29.452 A 65.057 65.057 0 0 1 98.381 31.001 Q 98.178 31.604 97.983 32.137 A 31.648 31.648 0 0 1 97.6 33.132 Q 96.6 34.372 95.08 34.812 A 8.05 8.05 0 0 1 93.831 35.073 Q 93.415 35.125 93.013 35.125 A 5.952 5.952 0 0 1 92.22 35.072 A 4.801 4.801 0 0 1 91.238 34.84 Q 90.561 34.597 90.08 34.152 A 1.712 1.712 0 0 1 89.739 33.726 Q 89.401 33.115 89.715 32.304 A 2.872 2.872 0 0 1 89.72 32.292 Q 88.6 33.212 87.4 33.972 A 6.434 6.434 0 0 1 85.845 34.677 A 8.674 8.674 0 0 1 84.5 34.972 A 9.258 9.258 0 0 1 83.205 35.065 A 8.272 8.272 0 0 1 81.24 34.832 Q 79.68 34.452 78.58 33.372 Q 77.48 32.292 77.4 30.492 Q 77.16 24.172 82.4 15.812 A 4.889 4.889 0 0 1 83.546 14.977 A 4.075 4.075 0 0 1 84.9 14.552 A 5.795 5.795 0 0 1 85.451 14.506 Q 86.131 14.483 86.725 14.636 A 3.769 3.769 0 0 1 87.34 14.852 Q 88.4 15.332 88.9 16.392 Q 89.378 17.406 88.814 18.694 A 4.837 4.837 0 0 1 88.76 18.812 Q 87.4 20.812 86.6 23.132 Q 85.8 25.452 85.12 27.812 A 16.235 16.235 0 0 0 89.205 24.08 A 21.97 21.97 0 0 0 91.28 20.892 A 58.944 58.944 0 0 1 92.735 18.307 A 64.413 64.413 0 0 1 92.84 18.132 Z M 19.467 26.145 A 11.497 11.497 0 0 0 21.72 24.812 Q 25.8 21.692 27.04 14.052 Q 27.84 9.052 26.64 6.092 A 9.46 9.46 0 0 0 26.158 5.137 A 6.664 6.664 0 0 0 22.28 1.972 A 6.822 6.822 0 0 0 20.222 1.66 A 7.596 7.596 0 0 0 19.34 1.712 Q 17.8 1.892 16.44 2.732 A 163.535 163.535 0 0 1 16.306 2.815 Q 15.035 3.598 14.18 4.092 A 15.706 15.706 0 0 0 13.713 4.373 A 13.489 13.489 0 0 0 12.54 5.192 A 8.256 8.256 0 0 0 12.085 5.576 A 9.532 9.532 0 0 0 11.14 6.572 A 8.585 8.585 0 0 0 10.899 6.879 Q 10.315 7.657 9.54 8.992 A 303.097 303.097 0 0 1 8.974 9.964 Q 8.702 10.429 8.451 10.853 A 171.515 171.515 0 0 1 7.88 11.812 Q 7.56 12.332 7.34 12.752 Q 7.216 12.989 7.074 13.269 A 74.358 74.358 0 0 0 6.84 13.732 A 16.676 16.676 0 0 0 6.705 14.008 Q 6.591 14.249 6.467 14.526 A 33.213 33.213 0 0 0 6.22 15.092 A 112.848 112.848 0 0 1 6.146 15.266 Q 5.821 16.027 5.32 17.172 Q 3.68 21.093 1.958 26.425 A 215.229 215.229 0 0 0 0 32.852 A 4.084 4.084 0 0 0 0.033 33.378 A 3.111 3.111 0 0 0 0.64 34.892 Q 1.28 35.732 2.24 36.172 Q 4.32 37.092 6.72 36.412 A 6.316 6.316 0 0 0 7.449 36.149 A 4.199 4.199 0 0 0 9.88 33.572 Q 10.28 33.052 10.44 32.412 A 35.063 35.063 0 0 1 10.551 31.541 A 38.278 38.278 0 0 1 11.96 25.372 Q 13.2 26.612 14.92 26.852 A 7.664 7.664 0 0 0 15.98 26.926 Q 16.018 26.926 16.055 26.926 A 8.078 8.078 0 0 0 18.38 26.552 A 10.1 10.1 0 0 0 19.467 26.145 Z M 127.32 27.492 L 125.16 29.492 Q 126.335 29.179 127.702 29.326 A 8.692 8.692 0 0 1 127.76 29.332 Q 129.16 29.492 130.2 30.132 Q 131.24 30.772 131.62 31.892 Q 132 33.012 131.12 34.572 A 6.071 6.071 0 0 0 130.884 34.599 Q 130.503 34.649 129.801 34.771 A 80.001 80.001 0 0 0 129.34 34.852 A 118.989 118.989 0 0 1 128.083 35.07 Q 127.221 35.215 126.22 35.372 Q 124.44 35.652 122.46 35.892 Q 120.48 36.132 118.76 36.172 A 26.215 26.215 0 0 1 118.264 36.188 Q 114.772 36.263 114.36 35.252 A 4.214 4.214 0 0 1 113.989 33.509 Q 113.989 30.574 117.8 26.732 Q 119.12 25.452 120.24 24.392 Q 121.333 23.358 122.026 22.609 A 20.491 20.491 0 0 0 122.06 22.572 A 4.333 4.333 0 0 0 122.272 22.325 Q 122.726 21.751 122.56 21.452 Q 121.8 21.292 121.64 21.212 A 0.827 0.827 0 0 0 121.466 21.123 Q 121.165 21.004 120.531 20.91 A 13.049 13.049 0 0 0 120.26 20.872 Q 119.16 20.732 118.58 20.112 A 1.876 1.876 0 0 1 118.217 19.567 Q 118.085 19.258 118.085 18.909 A 1.956 1.956 0 0 1 118.1 18.672 A 2.669 2.669 0 0 1 118.338 17.869 Q 118.487 17.547 118.725 17.22 A 5.192 5.192 0 0 1 118.9 16.992 A 5.339 5.339 0 0 1 119.83 16.106 A 7.33 7.33 0 0 1 120.8 15.492 A 15.31 15.31 0 0 1 123.165 14.482 A 16.959 16.959 0 0 1 123.38 14.412 Q 124.76 13.972 126.2 13.692 Q 128.26 13.246 130.969 13.035 A 54.751 54.751 0 0 1 131.88 12.972 A 1.006 1.006 0 0 1 132.113 12.997 Q 132.273 13.035 132.383 13.131 A 0.583 0.583 0 0 1 132.5 13.272 A 7.109 7.109 0 0 1 132.797 13.823 A 7.922 7.922 0 0 1 132.84 13.912 Q 133 14.252 133.26 14.512 Q 133.52 14.772 134.32 14.672 A 1.459 1.459 0 0 1 134.453 14.662 Q 135.149 14.639 135.46 15.352 A 2.709 2.709 0 0 1 135.65 16.024 Q 135.737 16.588 135.64 17.292 Q 135.48 18.452 134.88 19.672 A 5.834 5.834 0 0 1 134.141 20.827 A 4.827 4.827 0 0 1 133.32 21.612 A 868.15 868.15 0 0 1 131.647 23.282 Q 128.56 26.351 127.489 27.338 A 19.559 19.559 0 0 1 127.32 27.492 Z M 106.72 16.052 Q 107.24 14.732 109.2 14.252 Q 110.018 14.039 110.788 14.039 A 5.231 5.231 0 0 1 112.64 14.372 A 3.394 3.394 0 0 1 113.294 14.705 Q 114.244 15.34 114.12 16.452 A 228.385 228.385 0 0 1 113.759 17.589 Q 113.596 18.1 113.411 18.67 A 469.627 469.627 0 0 1 113.02 19.872 Q 112.36 21.892 111.76 24.012 A 126.505 126.505 0 0 0 111.055 26.496 Q 110.144 29.843 109.938 31.534 A 10.82 10.82 0 0 0 109.92 31.692 Q 109.32 35.292 107.92 35.572 Q 107.52 35.652 107.16 35.692 A 2.809 2.809 0 0 0 106.783 35.733 Q 106.357 35.811 106.149 36.025 A 0.673 0.673 0 0 0 106.04 36.172 A 1.35 1.35 0 0 1 105.573 36.664 A 1.901 1.901 0 0 1 105.24 36.832 A 2.956 2.956 0 0 1 104.296 37.03 Q 104.213 37.034 104.129 37.034 A 3.608 3.608 0 0 1 104.02 37.032 A 3.397 3.397 0 0 1 103.061 36.859 A 4.146 4.146 0 0 1 102.68 36.712 Q 102 36.412 101.52 35.852 Q 100.426 34.524 101.049 32.319 A 7.588 7.588 0 0 1 101.08 32.212 Q 101.691 28.051 104.087 21.741 A 103.443 103.443 0 0 1 104.32 21.132 A 43.498 43.498 0 0 1 105.087 19.21 Q 105.923 17.262 106.72 16.052 Z M 58.88 26.772 L 58.88 26.732 Q 58.84 26.692 58.84 26.612 L 58.88 26.612 A 3.153 3.153 0 0 1 59.123 25.474 Q 59.586 24.408 60.92 23.972 A 4.718 4.718 0 0 1 63.175 23.419 A 5.554 5.554 0 0 1 63.56 23.432 Q 65 23.532 66.16 24.332 Q 66.533 23.697 66.802 23.167 A 14.986 14.986 0 0 0 66.84 23.092 L 67.32 22.132 A 29.225 29.225 0 0 0 68.693 18.719 Q 70.386 13.531 69.08 9.612 Q 67.88 10.412 66.46 10.672 A 9.021 9.021 0 0 1 65.437 10.802 Q 64.634 10.856 63.909 10.743 A 6.071 6.071 0 0 1 63.84 10.732 Q 62.96 11.492 62.18 12.552 A 599.397 599.397 0 0 1 61.83 13.027 Q 61.327 13.709 61.1 14.012 A 4.745 4.745 0 0 0 60.948 14.23 Q 60.638 14.697 60.06 15.712 A 27.981 27.981 0 0 0 59.158 17.439 A 33.944 33.944 0 0 0 58.64 18.572 Q 57.96 20.132 57.48 21.792 A 13.93 13.93 0 0 0 57.081 23.591 A 11.041 11.041 0 0 0 56.96 24.932 Q 56.905 27.247 58.064 28.46 A 3.792 3.792 0 0 0 59.36 29.332 A 16.575 16.575 0 0 1 59.153 28.486 Q 58.98 27.679 58.962 27.105 A 4.171 4.171 0 0 1 58.96 26.972 A 0.27 0.27 0 0 1 58.88 26.78 A 0.354 0.354 0 0 1 58.88 26.772 Z M 13.36 21.252 A 5.817 5.817 0 0 0 17.37 18.207 A 8.727 8.727 0 0 0 17.92 16.972 Q 19 13.972 18.36 10.172 Q 17.44 11.732 16.7 13.412 A 340.56 340.56 0 0 1 16.037 14.908 Q 15.724 15.611 15.44 16.235 A 201.365 201.365 0 0 1 15.36 16.412 Q 14.179 19.06 13.511 20.844 A 37.518 37.518 0 0 0 13.36 21.252 Z M 111.1 9.812 A 3.308 3.308 0 0 0 111.977 10.12 Q 112.961 10.322 114.28 10.052 Q 115.561 9.514 116.21 8.861 A 2.383 2.383 0 0 0 116.74 8.092 A 2.994 2.994 0 0 0 116.878 7.675 Q 117.093 6.805 116.64 6.092 A 1.678 1.678 0 0 0 115.59 5.073 A 2.724 2.724 0 0 0 114.92 4.932 A 4.792 4.792 0 0 0 114.647 4.857 Q 114.301 4.772 114.04 4.772 A 3.468 3.468 0 0 0 114.012 4.772 Q 113.65 4.775 112.88 4.852 A 5.415 5.415 0 0 0 111.843 5.169 A 3.769 3.769 0 0 0 110.24 6.412 A 3.867 3.867 0 0 0 110.094 6.609 Q 109.501 7.465 109.68 8.272 A 1.724 1.724 0 0 0 109.995 8.94 Q 110.191 9.2 110.494 9.432 A 4.239 4.239 0 0 0 111.1 9.812 Z M 116.168 30.28 A 0.292 0.292 0 0 0 116.2 30.252 A 0.834 0.834 0 0 1 116.189 30.263 Q 116.117 30.332 116.08 30.332 Q 116.133 30.306 116.168 30.28 Z M 116.2 30.252 Q 116.24 30.212 116.2 30.252" vector-effect="non-scaling-stroke"/></g></svg>